PathFileType	4	(X/Y/Z)	Patient4_TMGait_0pt4_01_right_13.trc.trc
DataRate	CameraRate	NumFrames	NumMarkers	Units	OrigDataRate	OrigDataStartFrame	OrigNumFrames
76.086956521739	76.086956521739	5	33	mm	76.086956521739	124	       141
Frame#	Time	Sacral			L.Shoulder			Chest			R.Shoulder			Neck			R.ASIS			L.ASIS			R.Thigh.Superior			R.Thigh.Lateral			R.Thigh.Inferior			R.Patella			L.Thigh.Superior			L.Thigh.Lateral			L.Thigh.Inferior			L.Patella			L.Shank.Superior			L.Shank.Lateral			L.Shank.Inferior			R.Shank.Superior			R.Shank.Lateral			R.Shank.Inferior			R.Heel			R.Midfoot.Superior			R.Midfoot.Lateral			R.Toe			L.Heel			L.Midfoot.Lateral			L.Midfoot.Superior			L.Toe			L.Elbow			L.Wrist			R.Elbow			R.Wrist			
		X1	Y1	Z1	X2	Y2	Z2	X3	Y3	Z3	X4	Y4	Z4	X5	Y5	Z5	X6	Y6	Z6	X7	Y7	Z7	X8	Y8	Z8	X9	Y9	Z9	X10	Y10	Z10	X11	Y11	Z11	X12	Y12	Z12	X13	Y13	Z13	X14	Y14	Z14	X15	Y15	Z15	X16	Y16	Z16	X17	Y17	Z17	X18	Y18	Z18	X19	Y19	Z19	X20	Y20	Z20	X21	Y21	Z21	X22	Y22	Z22	X23	Y23	Z23	X24	Y24	Z24	X25	Y25	Z25	X26	Y26	Z26	X27	Y27	Z27	X28	Y28	Z28	X29	Y29	Z29	X30	Y30	Z30	X31	Y31	Z31	X32	Y32	Z32	X33	Y33	Z33	

124	18.346571428571	831.803415183185	1009.338924671332	465.603614052065	1028.866113687874	1421.401825139784	266.520457861436	1131.016406319709	1358.233436985136	428.696823150307	1054.529025458829	1443.818307930297	600.585988597527	1014.708051319303	1490.609404639130	431.618776379045	1060.856163831694	935.203974404162	576.090770187730	1040.200510795535	958.858362186908	303.160895189285	1119.099673283335	752.240358956038	544.333476584563	1067.013823412771	634.633395664114	619.503031529720	1146.999067204194	592.321223600147	533.510228733307	1170.504674120349	506.054212266818	547.725383765024	1047.990513173361	731.904944396634	331.281384032213	932.636979240499	635.313225231807	273.266083760033	996.865632229483	543.453428028915	334.970363177977	983.228088228728	477.431432627263	346.846898374623	950.832302192260	410.913676597449	339.291569748339	848.665421271620	306.847769608215	287.866821315976	885.175040359176	191.187173742741	362.575368707470	1145.668777258303	416.351479528134	561.149691847361	1083.520213892897	310.197150742021	629.605083042129	1135.666931768805	216.176299047037	572.851893375133	1018.118611442478	41.714081012107	555.504449128146	1187.577053485445	103.211785552494	581.308709289239	1105.676245303869	38.144190476365	625.453165055060	1310.705894236239	58.781515857908	604.166605540011	744.508688134020	40.946462013953	404.653866661730	820.234149482659	35.476914289180	326.474525161603	904.053126994112	95.709058017876	353.693194229006	1032.495586367803	40.264799788891	329.975010900649	1065.490946321074	1074.310797565319	145.543081923826	1273.584479148244	913.770124726357	160.652722753106	928.976372945215	1129.720306789502	733.227957652985	935.358179719599	867.827517458685	742.737841455553	
125	18.359714285714	833.277982195684	1008.298271286025	468.380604357918	1027.567409487087	1421.030615317755	269.382340104898	1131.238153929895	1358.055772410706	430.757231091332	1055.568598508572	1443.002900572547	603.409698219327	1014.604273080806	1489.986557131728	434.652969991038	1062.750093372038	933.877677459922	577.451874512742	1040.696157078574	958.546043291691	304.929205009883	1120.495914151078	750.202278707746	545.372250771844	1066.236295856405	632.968254905207	619.872210213952	1146.162941277448	590.509524727986	534.014603555396	1167.804695406279	504.323092978604	547.501134320368	1047.868391305952	731.234131262265	332.435310185481	931.795882593600	635.120979920360	274.696686991405	995.848043390605	542.845428578764	335.917506167380	982.155079880918	476.274073624923	347.515373453708	948.718649105697	410.136298714060	340.046116105479	845.079325567689	307.299267748817	288.804912717980	880.890183117090	191.031760456448	362.990872534604	1143.648363722727	414.331799302297	561.062127831756	1081.811055974205	308.048553717299	629.429686926071	1133.622482794825	214.190973085797	572.129657803162	1015.537922974288	41.078104600716	554.715168334333	1185.637060677737	101.517778248072	580.634507369834	1103.096202762450	37.167079937115	624.595705122311	1308.357101756352	55.732489570713	602.693125627797	739.173183234829	41.353363749662	404.698949853695	814.936380276919	35.605334731541	326.578973953731	898.897956955675	95.791003122656	353.727130619775	1027.208185041181	40.150821674272	329.943701398705	1062.688258300332	1073.200233186449	148.945460814383	1269.571361579497	910.882352965409	163.556071023512	934.901162889167	1127.102443640054	737.139234849641	946.964110227006	865.499141643532	747.250931524637	
126	18.372857142857	834.696028993058	1007.473524380277	471.239873444945	1026.304275799421	1420.901918108675	272.356104863601	1131.462969233583	1358.088889608446	432.936096145138	1056.581468578732	1442.361153029726	606.343935756974	1014.538234767608	1489.591673631788	437.787980992061	1064.631543322007	932.876473554922	578.939432771877	1041.135319068145	958.388204218480	306.814318675284	1122.223683982246	748.787051164452	546.456132269342	1066.023544341475	631.846913878067	620.318423546654	1145.952646203778	589.218664774553	534.701410267384	1165.740379874530	502.899649548894	547.512019707685	1048.267769125181	730.785194158007	333.617707122675	931.659118270228	634.870670936815	276.266221797770	995.884868364842	542.270071816106	336.909610009846	982.293142208815	474.971428713723	348.119271605222	947.533253318390	409.247839723346	340.828757648851	842.151046462368	307.938074761964	289.854939565455	876.992814356457	190.961371127518	363.403771223605	1141.854567707411	412.660861995532	561.090354157837	1079.956613320659	306.560684021011	629.514619241526	1130.827678636146	212.613567312398	571.616884272952	1011.453562508202	41.042718943004	554.196026524101	1182.261507234752	100.237112953579	580.294220965275	1098.979668535354	36.692771999140	624.072818030166	1304.528420950408	52.946720934137	601.714750784145	733.893689434173	42.165669084665	404.739972554167	809.684570032986	35.904838725593	326.693745033874	893.912597431551	95.917169075881	353.719062085408	1021.955639362851	39.990620684444	329.904447967594	1059.417750425669	1072.210130302855	152.606288593394	1264.614009216315	907.498097152573	166.078203848508	941.288919927573	1124.507188227273	741.103053866310	959.546193446072	863.310457924242	751.848053538976	
127	18.386000000000	836.006219573114	1006.926096969773	474.162938762627	1025.133581663147	1421.059580400850	275.413545308033	1131.701963945019	1358.334076618194	435.209858746149	1057.594928667777	1441.925808101780	609.349472683750	1014.524057879214	1489.460318540258	440.998499430784	1066.456278608669	932.245828616467	580.553128048036	1041.489545089554	958.434941058317	308.777206450652	1124.097560627477	747.946240814192	547.617620204377	1066.201025802314	631.233809215751	620.906459905209	1146.133804164342	588.374103756088	535.594795995090	1164.140383805457	501.789482185674	547.776332800942	1049.180630484769	730.618884186768	334.807965783524	932.329846740212	634.564177993388	277.929530428255	997.141637940025	541.751173128624	337.878992135824	983.818338799393	473.544436898601	348.559572125281	947.427488209935	408.268694911523	341.570477612561	840.021238143762	308.824745048164	290.963212074697	873.579685049158	191.034108394397	363.759096817718	1140.200003852453	411.352763981653	561.252281855421	1078.007311707951	305.639906615149	629.862635325031	1127.493692156292	211.423147052965	571.317322791694	1006.344493704808	41.372491141641	553.944710303924	1177.838216195099	99.345685995250	580.229897508331	1093.825912954735	36.577921640460	623.858652178377	1299.681361927102	50.594252184069	601.186946394114	728.717276058655	43.541652401474	404.757436022596	804.507304797043	36.457407077648	326.803240273263	889.163570672037	96.108713653446	353.636098735084	1016.741909098602	39.784151214711	329.859707970427	1055.711570240982	1071.412003444109	156.519404577784	1258.672770221864	903.670101535310	168.219498325623	948.110120408558	1122.016392814619	745.081880162542	973.050250006487	861.383753276085	756.462461736321	
128	18.399142857143	837.175305919703	1006.682929501995	477.148571488698	1024.085851688146	1421.521677868707	278.526779611895	1131.956540524808	1358.777369920373	437.548241020173	1058.633326368499	1441.710145455058	612.386694980613	1014.562794478882	1489.602971155535	444.261141117244	1068.195653339328	931.999967850696	582.283001659379	1041.749007125305	958.723260240795	310.777192725705	1125.914436487825	747.563101613910	548.900814685192	1066.538815158941	631.041171275507	621.687042324590	1146.423911628109	587.863935261879	536.697063597574	1162.767302088362	500.958655948701	548.286603772835	1050.592765803926	730.781605256508	335.994982503620	933.893983509410	634.209120977756	279.631040612928	999.743298657138	541.317076633717	338.755359216951	986.851915916465	472.030356685540	348.740832957349	948.520688406689	407.234570407321	342.198569434712	838.816320833573	310.025019761541	292.064366590137	870.744715295960	191.320254889312	363.997014039954	1138.542538133735	410.382086829526	561.559893731314	1075.933670510431	305.157759289705	630.435387304327	1123.784286207201	210.570534860272	571.216250631398	1000.638309624092	41.870729245412	553.924022756984	1172.729207807677	98.786081019983	580.363724113783	1088.075927705126	36.687677568406	623.895234193419	1294.225384013895	48.752908456643	601.027338987326	723.706902113410	45.653131366313	404.725815953430	799.442184904169	37.362597648956	326.886998640681	884.722830819720	96.395853458698	353.442787569933	1011.568780308967	39.535066831767	329.813200588878	1051.611028766855	1070.864905990329	160.661147362446	1251.714041493795	899.458888507674	169.996669675512	955.330692448787	1119.698444471062	749.049052448872	987.438122539369	859.839497003010	761.025010874374	
